<svg width="17" height="17" fill="none" xmlns="http://www.w3.org/2000/svg"><path fill-rule="evenodd" clip-rule="evenodd" d="M8.437 0C6.146 0 5.86.01 4.96.05 1.895.192.192 1.892.051 4.959.01 5.86 0 6.146 0 8.438c0 2.29.01 2.578.05 3.478.141 3.065 1.841 4.768 4.908 4.908.901.041 1.188.05 3.48.05 2.291 0 2.579-.009 3.478-.05 3.062-.14 4.77-1.84 4.908-4.908.041-.9.051-1.187.051-3.479 0-2.291-.01-2.578-.05-3.478-.139-3.061-1.84-4.767-4.908-4.908C11.017.01 10.73 0 8.437 0zm0 1.521c2.253 0 2.52.008 3.41.05 2.287.103 3.355 1.188 3.46 3.458.04.89.048 1.157.048 3.41s-.009 2.52-.049 3.409c-.104 2.267-1.17 3.354-3.458 3.458-.89.041-1.156.05-3.41.05-2.253 0-2.52-.009-3.41-.05-2.292-.104-3.355-1.194-3.459-3.459-.04-.89-.049-1.156-.049-3.41 0-2.252.01-2.519.05-3.409.104-2.269 1.17-3.354 3.458-3.458.89-.04 1.157-.049 3.41-.049zM4.106 8.438a4.333 4.333 0 118.666 0 4.333 4.333 0 01-8.666 0zm4.332 2.812a2.812 2.812 0 110-5.624 2.812 2.812 0 010 5.624zm3.492-7.316a1.013 1.013 0 112.025 0 1.013 1.013 0 01-2.026 0z" fill="#fff"/></svg>