<svg width="24" height="25" fill="none" xmlns="http://www.w3.org/2000/svg"><path fill-rule="evenodd" clip-rule="evenodd" d="M12.879 7.73a5.669 5.669 0 01-.88 3.045 5.686 5.686 0 01-.877-3.044v-.255c0-1.12.323-2.164.878-3.043.557.88.879 1.924.879 3.043v.255zm0 9.596c0 1.12-.323 2.164-.88 3.045a5.697 5.697 0 01-.877-3.045v-.254c0-1.118.323-2.165.878-3.046a5.68 5.68 0 01.879 3.046v.254zM24 1.833V0h-7.363A7.298 7.298 0 0012 1.697 7.305 7.305 0 007.362 0H0v1.833h7.355c1.275 0 2.45.446 3.388 1.193a7.558 7.558 0 00-1.485 4.507v.342c0 .714.1 1.41.288 2.07a7.2 7.2 0 00-2.216-.348H0v1.83h7.355a5.41 5.41 0 013.095.973 5.388 5.388 0 01-3.095.975H0v2.028h7.33c.77 0 1.515-.121 2.213-.345a7.644 7.644 0 00-.285 2.07v.34c0 1.63.516 3.142 1.393 4.38a5.406 5.406 0 01-3.296 1.121H0V25h7.33A7.294 7.294 0 0012 23.306 7.298 7.298 0 0016.672 25H24v-2.03h-7.355a5.406 5.406 0 01-3.296-1.123 7.554 7.554 0 001.393-4.379v-.34c0-.714-.1-1.411-.289-2.07a7.3 7.3 0 002.219.345H24v-2.028h-7.355a5.384 5.384 0 01-3.093-.975 5.412 5.412 0 013.093-.972H24v-1.83h-7.328a7.2 7.2 0 00-2.219.348 7.51 7.51 0 00.29-2.071v-.342a7.567 7.567 0 00-1.485-4.507 5.412 5.412 0 013.387-1.193H24z" fill="#000"/></svg>