<svg width="11" height="18" fill="none" xmlns="http://www.w3.org/2000/svg"><path fill-rule="evenodd" clip-rule="evenodd" d="M5.062 9.29c2.488 0 4.512-2.083 4.512-4.644C9.574 2.084 7.55 0 5.062 0 2.575 0 .551 2.084.551 4.646c0 2.561 2.024 4.644 4.511 4.644zm0-6.567c1.03 0 1.868.862 1.868 1.923 0 1.06-.838 1.923-1.868 1.923-1.029 0-1.867-.863-1.867-1.923s.838-1.923 1.867-1.923zm4.445 9.24a8.352 8.352 0 01-2.62 1.116l2.522 2.598c.248.255.388.6.388.962 0 .361-.14.707-.388.962a1.3 1.3 0 01-.934.399 1.3 1.3 0 01-.934-.399l-2.48-2.552-2.477 2.552c-.334.344-.82.478-1.276.352a1.342 1.342 0 01-.935-.962c-.123-.47.008-.97.342-1.315l2.522-2.597a8.324 8.324 0 01-2.62-1.117 1.385 1.385 0 01-.414-1.877c.187-.305.483-.522.825-.602.342-.08.7-.018.998.175a5.589 5.589 0 006.073 0c.297-.193.656-.256.998-.175.342.08.638.297.825.602a1.385 1.385 0 01-.415 1.877z" fill="#fff"/></svg>