<svg width="21" height="11" fill="none" xmlns="http://www.w3.org/2000/svg"><path fill-rule="evenodd" clip-rule="evenodd" d="M20.152.745c.143-.43 0-.745-.683-.745h-2.256c-.574 0-.838.272-.982.573 0 0-1.147 2.512-2.773 4.143-.526.472-.764.623-1.051.623-.144 0-.351-.15-.351-.58V.745c0-.516-.167-.745-.645-.745H7.865c-.358 0-.574.239-.574.466 0 .488.813.6.896 1.975v2.984c0 .654-.131.773-.418.773-.765 0-2.626-2.524-3.73-5.41C3.825.227 3.608 0 3.03 0H.774C.129 0 0 .272 0 .573c0 .537.765 3.199 3.562 6.72C5.426 9.696 8.053 11 10.444 11c1.434 0 1.611-.29 1.611-.788V8.395c0-.58.136-.695.59-.695.335 0 .909.15 2.248 1.31 1.53 1.374 1.782 1.99 2.642 1.99h2.257c.644 0 .967-.29.78-.86-.203-.57-.933-1.396-1.902-2.375-.526-.559-1.315-1.16-1.554-1.46-.335-.387-.24-.558 0-.902 0 0 2.749-3.478 3.036-4.658z" fill="#fff"/></svg>